<svg width="276" height="243" viewBox="0 0 276 243" fill="none" xmlns="http://www.w3.org/2000/svg">
    <path d="M272.72 124.65C269.27 142.11 262.73 158.47 253.31 173.3C244.1 187.79 232.33 200.49 218.33 211.05C194.37 229.13 163.81 241.48 133.41 241.48C120.84 241.48 105.82 238.91 98.54 227.33C96.64 224.31 95.45 220.91 94.82 217.42C94.51 215.68 94.35 213.92 94.3 212.16C94.19 208.6 94.55 204.71 95.39 200.48L104.58 154.04H80.91L85.13 132.75C86.11 127.8 90.47 124.22 95.5 124.22H110.94L114.39 106.76C116.31 97.08 124.83 90.07 134.68 90.07H149.61C154.67 90.07 158.44 94.67 157.45 99.64L152.59 124.22H183.1L177.2 154.04H146.69L138.94 193.2C136.96 203.22 142.25 207.54 153.4 207.54C160.95 207.54 167.34 205.36 174.2 202.43C181.02 199.52 187.6 196.03 193.8 191.97C219.32 175.29 237.24 149.96 243.35 119.13C248.24 94.43 244.11 73.18 231.4 57.67C216.74 39.78 190.76 29.93 158.23 29.93C93.88 29.93 43.12 67.99 31.92 124.65C27.02 149.4 31.18 170.71 43.92 186.26C52.46 196.67 64.8 204.35 80 208.92C79.86 212.71 80.08 216.32 80.65 219.72C81.88 226.94 84.7 233.28 89.04 238.58C90.09 239.86 91.22 241.07 92.43 242.21C81.08 240.65 70.48 237.91 60.76 234.02C44.38 227.46 30.9 217.82 20.69 205.37C11.5 194.16 5.28001 181.02 2.19001 166.31C-0.879994 151.69 -0.749995 135.82 2.55001 119.12C6.00001 101.68 12.53 85.31 21.94 70.47C31.13 56 42.86 43.3 56.81 32.73C70.67 22.23 86.39 14.08 103.52 8.51C120.94 2.87 139.45 0 158.55 0C179.25 0 198 3.29 214.29 9.78C230.82 16.36 244.4 26.05 254.65 38.56C263.83 49.76 270.04 62.89 273.11 77.57C276.16 92.15 276.03 107.99 272.73 124.65H272.72Z" fill="white"/>
</svg>
